PathFileType	4	(X/Y/Z)	5_2_62_p1_0-787.trc
DataRate	CameraRate	NumFrames	NumMarkers	Units	OrigDataRate	OrigDataStartFrame	OrigNumFrames
60.0	60.0	6	27	m	60.0	689	788
Frame#	Time	RHip			RKnee			RAnkle			RBigToe			RSmallToe			RHeel			LHip			LKnee			LAnkle			LBigToe			LSmallToe			LHeel			Neck			Head			Nose			RShoulder			RElbow			RWrist			RThumb			RIndex			RPinky			LShoulder			LElbow			LWrist			LThumb			LIndex			LPinky			
		X1	Y1	Z1	X2	Y2	Z2	X3	Y3	Z3	X4	Y4	Z4	X5	Y5	Z5	X6	Y6	Z6	X7	Y7	Z7	X8	Y8	Z8	X9	Y9	Z9	X10	Y10	Z10	X11	Y11	Z11	X12	Y12	Z12	X13	Y13	Z13	X14	Y14	Z14	X15	Y15	Z15	X16	Y16	Z16	X17	Y17	Z17	X18	Y18	Z18	X19	Y19	Z19	X20	Y20	Z20	X21	Y21	Z21	X22	Y22	Z22	X23	Y23	Z23	X24	Y24	Z24	X25	Y25	Z25	X26	Y26	Z26	X27	Y27	Z27	
689	11.483333333333333	0.36505749117682484	0.5317716619887276	0.8233825614297415	0.3853298336550821	0.610481559712776	1.2315042385476505	0.4117416768168228	0.7064388430519857	1.6749800697712833	0.383085601460909	0.548963267314055	1.6679119962074311	0.4447804946637109	0.5414292438369521	1.6546857821666752	0.41500025118713807	0.7572623960557879	1.726576488012354	0.14012482963464512	0.5088536789527639	0.8467883264491616	0.16649359860711996	0.5860299468317522	1.2476713499980534	0.16994230428276794	0.686554168935307	1.6719285101546137	0.27551620958818124	0.5555340698286363	1.6844804130443891	0.20129553757969268	0.5519851223412631	1.703080512189817	0.13965868652045424	0.8000309660890139	1.7509039173043108	0.22244057958710414	0.2885892308489425	0.3694363178671735	0.20637242435520875	0.1285353642714724	0.15839669735095588	0.2599683262440842	0.11636003917074511	0.2957581790087091	0.3812824774912164	0.36749573659001755	0.3910084844751546	0.5226691627799351	0.4617143699322968	0.5689043023430099	0.6589064688296019	0.4072117291836677	0.7249181248783082	0.703994519292124	0.35636903004428067	0.8458956649091202	0.7234473245258858	0.35642491860020864	0.8504183414397032	0.7198036896889999	0.4126131094896854	0.8593569764356722	0.0878566726228698	0.3359255628999776	0.4230222117920975	-0.0016073552852875557	0.3471454590502135	0.6318344548849996	0.05822120479811778	0.22737502095188677	0.46515890556204104	0.09363651732137446	0.17395065321179132	0.3850848529556591	0.09318899983666577	0.149110340910242	0.35861897687210403	0.09254048335581191	0.14053031104310704	0.3879938025651854
690	11.5	0.36523706616839174	0.5354427905552339	0.8315127377436562	0.38534273853971696	0.6103433299065592	1.23148381700439	0.41185783971301654	0.7062572060135482	1.6748373985030987	0.3835546025028894	0.548707071036434	1.6664445087739255	0.4445052679190004	0.5556799908378658	1.6597590012535914	0.42126629780420904	0.7407976051866126	1.715169869831867	0.13894225486001752	0.5108681152052761	0.847057438696595	0.16631680778486657	0.5860746915411439	1.2477777909156904	0.16993359457596166	0.6861441429446333	1.6717342946671647	0.2743963098392014	0.5578999543490628	1.6903085589050082	0.20528782910388266	0.5568219362608793	1.7046943148409452	0.13966652915025476	0.7991352512521728	1.7509115173102514	0.22801980898811214	0.27928389295223655	0.3730856854320077	0.20278237761004916	0.14866621224257714	0.15662563680966263	0.25888072982377736	0.10829454385068468	0.3023701703376154	0.38130217874021816	0.3675358793575047	0.39104010869391786	0.5219875819490288	0.46287960084386	0.5651987403850887	0.6547989441870626	0.4056121379134969	0.7249309121292735	0.7026151443463295	0.34004412133676026	0.8352643410746935	0.719065030035401	0.35489812539795856	0.8436287038075312	0.7073297206936414	0.3859889056067387	0.8534509260654727	0.08810508184943239	0.3357724933987222	0.4231609539405676	-0.0013770888127153744	0.3478594914473638	0.6391204193570029	0.0597451639504353	0.23779245002554777	0.4688726046578538	0.09477466442013834	0.19636628014509244	0.3849244140929691	0.09446526724473966	0.15966746138198437	0.36164639120335734	0.08928145702150257	0.13872427506349108	0.39429490192908545
691	11.516666666666667	0.36566513772087783	0.5344602671538996	0.8275057752017826	0.3853344730432385	0.610307790904107	1.2314377837634276	0.41169285367557834	0.7066807328355394	1.6749910170629547	0.3835932268748464	0.5489234674639643	1.666660323459811	0.44458433923782487	0.5557039901352157	1.6597562925363338	0.4207568446603205	0.7535689041776016	1.7209885375747196	0.14004820780071076	0.5090230694541262	0.8468682607817694	0.16630479336430914	0.5859160992369059	1.247833265834575	0.16987446902746572	0.6863322900104039	1.6719685523123466	0.27472365065243426	0.5577076107561215	1.690238769098732	0.21175524616129376	0.5413377500728468	1.697412075676065	0.13857305875238574	0.8002154376309105	1.7575738864949497	0.22342571278796192	0.2901696381703706	0.3773340310333183	0.20275445232421288	0.14854802761736569	0.15670785295689738	0.2589796978352999	0.10816893225090048	0.30250423247312797	0.3813244998604593	0.3676170381712492	0.39100666537800716	0.5246481284611666	0.4750812282949706	0.5655020614870959	0.6580627617241801	0.39205343492801015	0.7186651315745478	0.6880098038899377	0.3212660620900636	0.8227424580484626	0.7107117683714651	0.3415323863033053	0.8386173189070507	0.6973093807707337	0.3789508990748132	0.8418676967314861	0.08799080353462162	0.3361013801630207	0.42295978986169924	0.0021953398671607457	0.350732705678436	0.6392689610924471	0.059492873554855004	0.23887578102696985	0.472483959157957	0.08837260678249653	0.19616844892370358	0.3882285148546368	0.09303763114944878	0.14920398094910153	0.3651775063791652	0.08420415470425069	0.15125000700998592	0.40237447672229415
692	11.533333333333333	0.3652652769912629	0.5353591166442073	0.8315774654598115	0.38526488784437524	0.6103968521721892	1.231519860507093	0.40877033752071956	0.691636653993827	1.6695159673563023	0.3836362005225412	0.5499004634563095	1.6676026265927597	0.4474192049522566	0.5714908180035522	1.6658862331704234	0.4209597056757971	0.7524479103222742	1.7207818884826287	0.13888045283091535	0.5106738806424285	0.8471048686317122	0.1662457212063336	0.585656941911779	1.248087101805398	0.1699435790082384	0.6862054304554264	1.6719110105330233	0.2803858098718279	0.5416483654224762	1.682673062251388	0.2119097557533668	0.5409405187291415	1.69722896684263	0.13860431132829878	0.7960739134548895	1.746460154233046	0.2298623803715376	0.2901958564530822	0.37682289826324017	0.21022113596561437	0.13084007231141903	0.16099167564269215	0.25776736285998814	0.10094661748794301	0.30906537829225195	0.38148935878153717	0.36798498453657436	0.39097494732340454	0.5313008285078146	0.5025164181830664	0.5738833853602793	0.6587242393703505	0.3657426828182211	0.7120051145429528	0.6842543069144399	0.2815111354221412	0.8065588822252686	0.7087375843548532	0.3204849382444004	0.8164841314135854	0.695847517445664	0.3711545347959143	0.8208310066002648	0.08576232638144733	0.3462529056367976	0.4198346336263762	0.005887281789840672	0.3534539563433775	0.6395167549371152	0.05762029887323299	0.25137450524793664	0.473392159668009	0.0883936670144306	0.1964185701886558	0.38878479743979505	0.09338958430403178	0.14861827783391782	0.36904031123731357	0.0840559902428106	0.15136454019060916	0.4025261145313533
693	11.55	0.3704529682120399	0.5343285634399958	0.8235163681374285	0.38532751683374444	0.6102495549119552	1.2315578673498142	0.4138081153774539	0.6922752308940272	1.6652402310022505	0.387265355918347	0.5635420760557271	1.6693190766088557	0.44741403432061505	0.5717231094795738	1.6659919142390487	0.41124861594662393	0.7807150126008311	1.7353319868288846	0.1400579097534124	0.5087193635171607	0.8471374399915549	0.16634965966328516	0.5855951120942781	1.2476851790680403	0.16995534444545493	0.6863979727018191	1.671779017037843	0.283175613412871	0.5514476331841123	1.68171310434546	0.2118462419490215	0.5407309692273382	1.6971642539600031	0.12932633055094425	0.8004064523058595	1.74816226878908	0.22987886772073046	0.29077802022196475	0.3802272756619317	0.2068283339591872	0.12783813783415518	0.16157976260917745	0.2575297653186607	0.10083184480384029	0.30916431101213465	0.3815476021203179	0.3678796670325529	0.3909964217470337	0.5230572694316054	0.4866685101554318	0.566629062901185	0.6495608747789965	0.35322644481648924	0.7000470818055391	0.6778963914902459	0.23387346785843866	0.7929800308288474	0.6953041636771211	0.2559806696475702	0.7934216058247284	0.6898703969650544	0.35628574135145136	0.8032194677510986	0.08922404909858142	0.3482577917077531	0.4194580207879024	0.012431822493021811	0.3833405139153256	0.6523475547901548	0.06407137757195079	0.24269553695650067	0.48017688995737434	0.07810382405233973	0.20510060125288967	0.3910701938271063	0.08990911872752184	0.14665802608537604	0.374467410800595	0.0911845805705216	0.14316113799954905	0.41238860517943804
694	11.566666666666666	0.3695475682589143	0.5370504581587359	0.831530459983527	0.3859976933155273	0.6094138489997031	1.2353187506061722	0.41177369205605513	0.6911916373968938	1.6643561223844345	0.3850136600222498	0.5480388042555137	1.6628938616766966	0.4434315213159452	0.5719803941085498	1.6667008998468762	0.416136261132895	0.7667128521385358	1.7283102395941208	0.13913150432958013	0.5109311221084241	0.8544878562856553	0.1657830275046931	0.5868004575274921	1.2520690516416737	0.17087514993178796	0.6850975566577696	1.6753993699514145	0.2837458844728811	0.5498648442015075	1.6849912032861618	0.2077068458432876	0.5362839953860165	1.6956132891279072	0.1292731674692404	0.8005175747302297	1.7477439852364176	0.23052439428658492	0.2916504833299285	0.3808249131884125	0.21190793508533032	0.14013035965388923	0.16034731442493003	0.2526131452274249	0.11147975608571947	0.3092285614738647	0.3816847884405672	0.36776194356617126	0.3910276966443638	0.5230468840085413	0.4867186803244903	0.5663686769495244	0.6411087071442886	0.3544419473985803	0.6933828512544046	0.6696918697175605	0.22258082992287848	0.787553466881904	0.6843580190449199	0.21001569374277648	0.7832603649314951	0.6822619477404677	0.353229611002375	0.7965729807647218	0.09603440311657695	0.33587910907368124	0.41571971154332027	0.01827612958081018	0.41212694591120985	0.6549256616134396	0.06004818145103846	0.24098867092096157	0.4838942872017038	0.07876314304315074	0.19479112183142272	0.3980284209270667	0.08834527289103099	0.15745766693765642	0.3789686715056457	0.09068233693858001	0.14333510180928638	0.40926176066353026
